FFmpeg version SVN-r25716, Copyright (c) 2000-2010 the FFmpeg developers  built on Nov 10 2010 12:23:18 with gcc 4.1.2 20080704 (Red Hat 4.1.2-48)  configuration: --enable-libmp3lame --enable-shared --disable-mmx --arch=x86_64  libavutil     50.33. 0 / 50.33. 0  libavcore      0.12. 1 /  0.12. 1  libavcodec    52.94. 4 / 52.94. 4  libavformat   52.84. 0 / 52.84. 0  libavdevice   52. 2. 2 / 52. 2. 2  libavfilter    1.59. 0 /  1.59. 0  libswscale     0.12. 0 /  0.12. 0Seems stream 0 codec frame rate differs from container frame rate: 1000.00 (1000/1) -> 12.00 (12/1)Input #0, mov,mp4,m4a,3gp,3g2,mj2, from '/RAID10/data/converted_video_files/10725.mov':  Metadata:    major_brand     : qt      minor_version   : 537199360    compatible_brands: qt    Duration: 00:00:10.00, start: 0.000000, bitrate: 12526 kb/s    Stream #0.0(eng): Video: mpeg4, yuv420p, 678x518 [PAR 1:1 DAR 339:259], 12525 kb/s, 12 fps, 12 tbr, 600 tbn, 1k tbc[buffer @ 0xc082350] w:678 h:518 pixfmt:yuv420pOutput #0, flv, to '/RAID10/data/converted_video_files/10725.flv':  Metadata:    encoder         : Lavf52.84.0    Stream #0.0(eng): Video: flv, yuv420p, 678x518 [PAR 1:1 DAR 339:259], q=2-31, 600 kb/s, 1k tbn, 24 tbcStream mapping:  Stream #0.0 -> #0.0Press [q] to stop encodingframe=   13 fps=  0 q=22.0 size=     718kB time=1.04 bitrate=5642.8kbits/s    frame=   39 fps= 36 q=31.0 size=     889kB time=3.21 bitrate=2270.7kbits/s    frame=   65 fps= 41 q=31.0 size=    1060kB time=5.37 bitrate=1616.5kbits/s    frame=   81 fps= 39 q=31.0 size=    1157kB time=6.71 bitrate=1413.0kbits/s    frame=   96 fps= 37 q=31.0 size=    1246kB time=7.96 bitrate=1282.3kbits/s    frame=  120 fps= 39 q=31.0 Lsize=    1359kB time=9.96 bitrate=1118.3kbits/s    video:1357kB audio:0kB global headers:0kB muxing overhead 0.153242%